<svg id="Layer_1" height="512" viewBox="0 0 512 512" width="512" xmlns="http://www.w3.org/2000/svg" data-name="Layer 1"><path d="m262.67 11c-117.64 0-213 95.65-213 213.63a213.488 213.488 0 0 0 82.21 168.62h.35v-28.64c-.05-.04-.1-.07-.15-.11l.15-.2v.31c24.69 17.66 53.09 36.45 83.8 42.95l94.3 1.83c28.48-6.13 54.96-25.68 78.32-41.51l.2.93v27.95c1.56-1.15 3.09-2.32 4.61-3.51a213.488 213.488 0 0 0 82.21-168.62c0-117.98-95.36-213.63-213-213.63z" fill="#e5f5fd"/><path d="m200.44 318.63a84.222 84.222 0 0 1 -19.43-38.42l-2.14-10.01h.02v-56.96h-4.94a47.733 47.733 0 0 1 38.57-46.58c11.99-2.3 26.97-8.66 38.08-16.66l.43-.47c.12.11.25.22.37.33a82.872 82.872 0 0 0 42.31 20.15 151.637 151.637 0 0 0 18.19 1.72 41.921 41.921 0 0 1 40.51 41.88h4.46a16.794 16.794 0 0 1 11.84 28.65 16.792 16.792 0 0 1 -11.84 4.91h-4.46l-7.06 33.04a83.939 83.939 0 0 1 -129.1 52.25q-3.045-2.055-5.9-4.37a84.338 84.338 0 0 1 -9.91-9.46z" fill="#ffd8b7"/><path d="m246.25 332.46q-3.045-2.055-5.9-4.37a84.1 84.1 0 0 1 -29.34-47.88l-2.14-10.01h.02l-4.94-56.96a47.733 47.733 0 0 1 38.57-46.58 97.592 97.592 0 0 0 21.834-7.3 83.847 83.847 0 0 1 -12.954-9.5c-.12-.11-.25-.22-.37-.33l-.43.47c-11.11 8-26.09 14.36-38.08 16.66a47.733 47.733 0 0 0 -38.57 46.58h4.94v56.96h-.02l2.14 10.01a84.1 84.1 0 0 0 29.34 47.88q2.85 2.31 5.9 4.37a83.764 83.764 0 0 0 61.93 13.013 83.616 83.616 0 0 1 -31.93-13.013z" fill="#efc597"/><path d="m467.61 40.45a39.261 39.261 0 0 0 15.41 9.55 39.464 39.464 0 0 0 -24.93 25 39.471 39.471 0 0 0 -24.92-25 39.224 39.224 0 0 0 15.4-9.55 39.5 39.5 0 0 0 9.52-15.45 39.5 39.5 0 0 0 9.52 15.45z" fill="#3090fc"/><path d="m446.55 447.48v53.52h-367.76v-53.52a54.16 54.16 0 0 1 53.09-54.23c.11.09.23.18.35.27v30.98l-.15.21a224.648 224.648 0 0 0 256.97 3.1l-.2-.3v-30.75c1.56-1.15 3.09-2.32 4.61-3.51a54.16 54.16 0 0 1 53.09 54.23z" fill="#50a6ea"/><path d="m388.85 427.51.2.3a224.648 224.648 0 0 1 -256.97-3.1l.15-.21v-30.98a212.546 212.546 0 0 0 256.62 3.24z" fill="#475673"/><path d="m216.03 401.56a224.5 224.5 0 0 0 172.62-33.68l.2.93v27.95a212.546 212.546 0 0 1 -256.62-3.24v-28.91a223.548 223.548 0 0 0 83.8 36.95z" fill="#5f6a78"/><path d="m58.7 356.8a39.407 39.407 0 0 0 12.91 12.74 39.38 39.38 0 0 0 -29.82 18.84 39.549 39.549 0 0 0 -18.79-29.92 39.376 39.376 0 0 0 29.83-18.84 39.546 39.546 0 0 0 5.87 17.18z" fill="#3090fc"/><path d="m374.8 288.9c8.59 42.44-21.52 82.92-64.47 86.78v-42.89l-.22-.33a84.2 84.2 0 0 0 35.24-52.25l7.06-33.04h4.46a16.572 16.572 0 0 0 8.95-2.6z" fill="#6d7486"/><path d="m278.09 65.92-34.78-.17a80.936 80.936 0 0 0 -80.82 81.06v67.08l.02.1a28.235 28.235 0 0 1 6.48-.75h4.96a47.733 47.733 0 0 1 38.57-46.58c11.99-2.3 26.97-8.66 38.08-16.66l.43-.47c.12.11.25.22.37.33a82.872 82.872 0 0 0 42.31 20.15 151.637 151.637 0 0 0 18.19 1.72 41.921 41.921 0 0 1 40.51 41.88h4.46a16.764 16.764 0 0 1 6.43 1.28v-63.51a85.334 85.334 0 0 0 -85.21-85.46z" fill="#6d7486"/><path d="m310.11 332.46h-93.86l-.22.33v68.77a226.379 226.379 0 0 0 94.3-.17v-68.6z" fill="#efc597"/><path d="m210.35 328.09a84.1 84.1 0 0 1 -29.34-47.88l-2.14-10.01h-9.92a28.356 28.356 0 0 1 -13.89-3.64l-4.52 22.34c-8.63 42.58 21.72 83.18 64.89 86.82h.6v-42.93l.22-.33q-3.045-2.055-5.9-4.37z" fill="#6d7486"/><path d="m173.95 213.24h4.94v56.96h-9.94a28.428 28.428 0 0 1 -28.4-28.44v-.08a28.449 28.449 0 0 1 28.44-28.44z" fill="#ed6337"/><path d="m79.67 224.63c0-112.921 87.362-205.374 198-213.095-4.956-.346-9.956-.535-15-.535-117.64 0-213 95.65-213 213.63a213.488 213.488 0 0 0 82.21 168.62h.35v-28.119a213.165 213.165 0 0 1 -52.56-140.501z" fill="#a6b7d0"/><path d="m132.23 402.781v-9.261c-.12-.09-.24-.18-.35-.27a54.16 54.16 0 0 0 -53.09 54.23v53.52h30v-53.52a54.218 54.218 0 0 1 23.44-44.699z" fill="#72bcef"/><g fill="#284268"><path d="m231.68 228.863a6 6 0 0 0 -6 6 7.54 7.54 0 1 1 -15.08 0 6 6 0 0 0 -12 0 19.54 19.54 0 1 0 39.08 0 6 6 0 0 0 -6-6z"/><path d="m321.765 228.863a6 6 0 0 0 -6 6 7.54 7.54 0 1 1 -15.08 0 6 6 0 0 0 -12 0 19.54 19.54 0 1 0 39.08 0 6 6 0 0 0 -6-6z"/><path d="m102.973 153.327a6 6 0 0 0 -7.811 3.316 180.691 180.691 0 0 0 -13.151 67.986 6 6 0 0 0 12 0 168.739 168.739 0 0 1 12.278-63.492 6 6 0 0 0 -3.316-7.81z"/><path d="m97.067 256.869a6 6 0 1 0 -11.783 2.267 180.949 180.949 0 0 0 4.975 19.77 6 6 0 0 0 11.453-3.583 169.006 169.006 0 0 1 -4.645-18.454z"/><path d="m407.747 389.248c3.356-3 6.642-6.094 9.861-9.323a220.1 220.1 0 0 0 -.057-310.591 219.009 219.009 0 0 0 -373.88 155.295 218.4 218.4 0 0 0 64.02 155.3c3.217 3.225 6.6 6.323 9.99 9.317a60.365 60.365 0 0 0 -44.681 58.233v53.521a5.822 5.822 0 0 0 5.786 6h367.768c3.313 0 6.446-2.687 6.446-6v-53.521a60.22 60.22 0 0 0 -45.253-58.231zm-352.192-164.619c0-114.487 92.918-207.629 207.057-207.629s207.1 93.142 207.1 207.629a206.427 206.427 0 0 1 -74.712 159.665v-15.481a6.075 6.075 0 0 0 -.212-1.263l-.239-.929a6.026 6.026 0 0 0 -9.259-3.7 217.366 217.366 0 0 1 -69.29 31v-12.975a78.637 78.637 0 0 0 64.6-93.24l-8.206-40.729a22.628 22.628 0 0 0 7.041-16.588 23.36 23.36 0 0 0 -10.435-19.036v-59.97c0-50.433-40.765-91.339-90.991-91.339l-14.827-.044h-19.875c-47.869 0-87.307 38.805-87.307 86.806v62.788c-12 5.019-21.7 17.52-21.7 32.168a34.521 34.521 0 0 0 13.953 27.575l-3.653 18.369a78.589 78.589 0 0 0 65.4 93.41v12.917a217.113 217.113 0 0 1 -73.031-33.419 6 6 0 0 0 -9.615.193l-.264.206a7.949 7.949 0 0 0 -1.09 4.814v14.807a208.147 208.147 0 0 1 -70.445-156.005zm207.076 207.63a206.831 206.831 0 0 1 -124.631-41.815v-14.51a231.426 231.426 0 0 0 245 2.818v14.838a206.257 206.257 0 0 1 -120.369 38.669zm120.369-23.953v16.441a219.315 219.315 0 0 1 -245-3.047v-16.286c37 25.245 79.518 38.845 124.631 38.845a219.148 219.148 0 0 0 120.369-35.953zm-26.125-167.306h-4.462a6.077 6.077 0 0 0 -5.867 4.83l-7.064 33.088a78.529 78.529 0 0 1 -76.3 62.089 80.922 80.922 0 0 1 -47.51-16.007h18.321a13.365 13.365 0 0 0 11.637 6.934 13.2 13.2 0 0 0 13.1-13.214 13 13 0 0 0 -13.1-12.981c-5.065 0-9.457 2.261-11.637 7.261h-30.755a81.006 81.006 0 0 1 -16.3-33.853l-1.936-9.5v-56.411a6.047 6.047 0 0 0 -4.533-5.8 41.679 41.679 0 0 1 33.216-34.882c14.654-2.818 27.253-7.882 37.508-15.044a88.7 88.7 0 0 0 41.589 18.422 157.461 157.461 0 0 0 18.913 1.8 36 36 0 0 1 34.72 36.068 6.169 6.169 0 0 0 6 6.2h4.462a10.5 10.5 0 1 1 0 21zm12.044 49.087a66.808 66.808 0 0 1 -52.919 78.7v-33.378c1-.858 2.492-1.737 3.623-2.654a90.737 90.737 0 0 0 31.512-51.286l6.091-28.3a22.928 22.928 0 0 0 4.105-.447zm-64.919 52.736v53.734a220.864 220.864 0 0 1 -82 .09v-53.824a90.536 90.536 0 0 0 41 10.008 87.493 87.493 0 0 0 41-10.008zm-115.7-29.823h-5.446c-4.357 0-7.852-3.937-7.852-8.316v-24.134l.172 1.1a96.438 96.438 0 0 0 13.126 31.35zm168.7-109.724c-4-20.961-22.63-36.735-45.033-37.539a144.13 144.13 0 0 1 -17.391-1.655 76.74 76.74 0 0 1 -39.219-18.7 79.232 79.232 0 0 1 -26.157-52.591 5.993 5.993 0 1 0 -11.943 1.015 91.207 91.207 0 0 0 24.829 55.345c-8.47 5.416-19.014 9.327-30.941 11.62-22.661 4.356-39.145 22.798-43.145 45.238v-59.2c0-41.387 34.055-74.809 75.307-74.809h19.807l14.827.044a79.192 79.192 0 0 1 79.059 79.339zm-188.008 15.724h2.893a2.6 2.6 0 0 1 1.115.509v44.491h-4.008a22.5 22.5 0 0 1 0-45zm-12.581 71.087 3.112-15.223c1.127.324 2.477.591 3.477.8v29.021c0 11 8.878 20.316 19.852 20.316h14.977a75.857 75.857 0 0 0 8.73 7.942c1.13.917 2.441 1.61 3.441 2.468v33.547a67.769 67.769 0 0 1 -41.586-25.549 66.842 66.842 0 0 1 -12.003-53.322zm284.589 204.913h-65v-26.185a6 6 0 0 0 -12 0v26.185h-202v-26.185a6 6 0 0 0 -12 0v26.185h-65v-47.521a47.846 47.846 0 0 1 41-47.739v23.64c0 2.284.451 4.757 2.475 6.206a230.923 230.923 0 0 0 264 3.188c2.166-1.475 2.527-4.117 2.527-6.514v-26.484c.173-.131.338-.271.511-.4 25.368 1.781 45.489 22.668 45.489 48.1z"/><path d="m431.263 55.69a33.632 33.632 0 0 1 21.135 21.2 6 6 0 0 0 11.387 0 33.632 33.632 0 0 1 21.135-21.2 6 6 0 0 0 0-11.38 33.632 33.632 0 0 1 -21.135-21.2 6 6 0 0 0 -11.387 0 33.632 33.632 0 0 1 -21.135 21.2 6 6 0 0 0 0 11.38zm26.829-17.382a45.92 45.92 0 0 0 11.668 11.692 45.92 45.92 0 0 0 -11.668 11.692 45.94 45.94 0 0 0 -11.669-11.692 45.94 45.94 0 0 0 11.669-11.692z"/><path d="m77.465 370.869a6 6 0 0 0 -2.733-6.458 33.7 33.7 0 0 1 -15.932-25.378 6 6 0 0 0 -11.106-2.516 33.562 33.562 0 0 1 -25.285 15.975 6 6 0 0 0 -2.526 11.1 33.7 33.7 0 0 1 15.933 25.378 6 6 0 0 0 11.106 2.516 33.564 33.564 0 0 1 25.285-15.975 6 6 0 0 0 5.258-4.642zm-32.736 4.531a46 46 0 0 0 -8.8-14 45.843 45.843 0 0 0 13.956-8.8 46.006 46.006 0 0 0 8.8 14 45.848 45.848 0 0 0 -13.956 8.8z"/><path d="m486 445.25a6 6 0 0 0 -6 6v.168a6 6 0 0 0 12 0v-.168a6 6 0 0 0 -6-6z"/><path d="m486.436 433.479a6 6 0 0 0 6-6 60.3 60.3 0 0 0 -34.436-54.492 6 6 0 0 0 -5.139 10.844 48.245 48.245 0 0 1 27.575 43.648 6 6 0 0 0 6 6z"/><ellipse cx="476.038" cy="103" rx="10.985" ry="11"/><ellipse cx="487.006" cy="475" rx="7.994" ry="8"/><ellipse cx="42.322" cy="75" rx="10.985" ry="11"/><ellipse cx="42.322" cy="432" rx="10.985" ry="11"/><path d="m427.81 192.879c.886 4.669 1.585 9.444 2.074 14.191a6 6 0 0 0 11.937-1.23c-.524-5.085-1.272-10.2-2.222-15.2a6 6 0 0 0 -11.789 2.24z"/><path d="m399.2 126.216a169.377 169.377 0 0 1 12.482 20.265c2.394 4.584 4.606 9.343 6.572 14.145a6 6 0 1 0 11.1-4.546c-2.106-5.145-4.475-10.245-7.042-15.155a181.1 181.1 0 0 0 -33.412-45.143 6 6 0 0 0 -8.423 8.547 169.751 169.751 0 0 1 18.723 21.887z"/></g></svg>