<svg width="103" height="30" viewBox="0 0 103 30" fill="none" xmlns="http://www.w3.org/2000/svg">
<mask id="mask0" mask-type="alpha" maskUnits="userSpaceOnUse" x="0" y="0" width="103" height="30">
<path d="M6.28187 14.6231C6.28187 13.5507 7.34671 12.7673 9.13566 12.7673C11.0946 12.7673 12.7982 13.3857 14.161 14.953L17.0998 11.9838C15.5665 9.9217 12.6705 8.72571 9.00766 8.72571C3.81187 8.72571 1.1712 11.6126 1.1712 14.6231C1.1712 21.7158 12.1167 19.984 12.1167 23.5307C12.1167 24.7677 11.0946 25.5925 9.09294 25.5925C6.66524 25.5925 4.70638 24.7677 3.13048 23.0768L0.234375 26.2936C1.98061 28.2731 4.91902 29.6337 8.79494 29.6337C14.3314 29.6337 17.2701 26.7885 17.2701 23.4481C17.2701 16.0664 6.28187 18.0868 6.28187 14.6231Z" fill="#171634"/>
<path d="M27.953 9.3032V4.18958H22.7569V9.30318H19.1367V13.757H22.7145V22.2933C22.7145 27.1184 25.355 29.6337 29.4862 29.6337C31.9989 29.6337 33.9155 28.7266 35.0653 27.6542L32.723 23.9016C32.2119 24.4791 31.2748 24.8913 30.3379 24.8913C28.8048 24.8913 27.9953 23.9842 27.9953 22.1284V13.757H37.4656V29.0565H42.6613V9.3032H37.4656H27.953Z" fill="#171634"/>
<path d="M40.0218 0.725342C38.361 0.725342 36.998 2.0863 36.998 3.69454C36.998 5.3441 38.361 6.62242 40.0218 6.62242C41.7254 6.62242 43.0883 5.34412 43.0883 3.69454C43.0883 2.0863 41.7254 0.725342 40.0218 0.725342Z" fill="#171634"/>
<path d="M56.6056 24.8913C55.0724 24.8913 54.2629 23.9843 54.2629 22.1284V13.757H59.757V9.3032H54.2206V4.18958H49.0244V9.30318H45.4043V13.757H48.9821V22.2933C48.9821 27.1184 51.6225 29.6337 55.7538 29.6337C58.2665 29.6337 60.1831 28.7266 61.3329 27.6542L58.9906 23.9016C58.4795 24.4791 57.5424 24.8913 56.6056 24.8913Z" fill="#171634"/>
<path d="M73.1275 13.4681C75.1291 13.4681 76.6623 14.0869 77.9401 15.283L80.9212 11.6949C79.1327 9.88039 76.3643 8.72571 72.8721 8.72571C66.9092 8.72571 62.2246 13.4271 62.2246 19.2006C62.2246 24.9327 66.9092 29.6337 72.9571 29.6337C76.1939 29.6337 79.1327 28.3968 80.7509 26.6645L78.1106 22.9532C76.8327 24.1905 75.1717 24.8913 73.0848 24.8913C69.763 24.8913 67.4206 22.3347 67.4206 19.1592C67.4206 15.9837 69.7203 13.4681 73.1275 13.4681Z" fill="#171634"/>
<path d="M94.6447 8.72561C92.1317 8.72561 90.1728 9.63302 88.8953 11.2412V0.684082H83.6992V29.0565H88.8953V17.8395C88.8953 15.1589 90.4708 13.468 93.0688 13.468C95.5816 13.468 97.2001 15.1588 97.2001 17.8395V29.0565H102.396V17.097C102.396 11.9424 99.3721 8.72561 94.6447 8.72561Z" fill="#171634"/>
</mask>
<g mask="url(#mask0)">
<rect x="0.234375" y="0.684082" width="102.162" height="29.5372" fill="url(#paint0_linear)"/>
</g>
<defs>
<linearGradient id="paint0_linear" x1="0.234372" y1="28.5733" x2="107.359" y2="-3.44133" gradientUnits="userSpaceOnUse">
<stop stop-color="white"/>
<stop offset="0.802083" stop-color="white"/>
<stop offset="1" stop-color="white"/>
</linearGradient>
</defs>
</svg>