<svg height="512" viewBox="0 0 512 512" width="512" xmlns="http://www.w3.org/2000/svg"><circle cx="256" cy="256" fill="#f05a4b" r="224"/><path d="m256 32v448c123.712 0 224-100.288 224-224s-100.288-224-224-224z" fill="#d73228"/><path d="m256 160h202.431a224.557 224.557 0 0 0 -45.686-64h-156.745a32 32 0 0 0 -32 32 32 32 0 0 0 32 32z" fill="#d73228"/><rect fill="#b9140a" height="64" rx="32" width="128" x="320" y="224"/><path d="m192 320a32 32 0 0 1 32-32 32 32 0 0 0 32-32 32 32 0 0 0 -32-32h-128a32 32 0 0 0 -32 32 32 32 0 0 0 32 32 32 32 0 0 1 32 32 32 32 0 0 1 -32 32h-42.431a224.557 224.557 0 0 0 45.686 64h313.49a224.557 224.557 0 0 0 45.686-64h-234.431a32 32 0 0 1 -32-32z" fill="#d73228"/><g fill="#b9140a"><path d="m458.431 160a224.557 224.557 0 0 0 -45.686-64h-156.745v64z"/><path d="m458.431 352h-202.431v64h156.745a224.557 224.557 0 0 0 45.686-64z"/></g></svg>