<svg width="177" height="89" viewBox="0 0 177 89" fill="none" xmlns="http://www.w3.org/2000/svg">
<path d="M52.0353 58.4467L51.9546 45.564L45.8161 55.9024H41.6161L35.4776 46.0082V58.4467H26.7949V30.1774H34.6295L43.8372 45.2409L52.8026 30.1774H60.6373L60.718 58.4467H52.0353Z" fill="url(#paint0_linear)"/>
<path d="M84.5895 53.5197H73.8471L71.9491 58.4467H62.2567L74.6144 30.1774H83.9837L96.3414 58.4467H86.4875L84.5895 53.5197ZM81.9644 46.6543L79.2183 39.5466L76.4721 46.6543H81.9644Z" fill="url(#paint1_linear)"/>
<path d="M109.978 51.339H107.393V58.4467H97.8624V30.1774H111.472C114.084 30.1774 116.359 30.6082 118.297 31.4697C120.236 32.3313 121.73 33.5697 122.78 35.1851C123.83 36.8005 124.355 38.6851 124.355 40.839C124.355 42.8582 123.897 44.6216 122.982 46.1293C122.066 47.637 120.747 48.8351 119.024 49.7236L124.961 58.4467H114.784L109.978 51.339ZM114.743 40.839C114.743 39.7889 114.42 38.9813 113.774 38.4159C113.128 37.8236 112.159 37.5274 110.866 37.5274H107.393V44.1505H110.866C112.159 44.1505 113.128 43.8678 113.774 43.3024C114.42 42.7101 114.743 41.889 114.743 40.839Z" fill="url(#paint2_linear)"/>
<path d="M138.494 59.0928C136.152 59.0928 133.863 58.837 131.629 58.3255C129.421 57.787 127.604 57.0736 126.177 56.1851L129.246 49.239C130.592 50.0197 132.1 50.6524 133.769 51.137C135.438 51.5947 137.04 51.8236 138.575 51.8236C139.894 51.8236 140.836 51.7024 141.402 51.4601C141.967 51.1909 142.25 50.8005 142.25 50.289C142.25 49.6966 141.873 49.2524 141.119 48.9563C140.392 48.6601 139.181 48.337 137.484 47.987C135.304 47.5293 133.486 47.0447 132.033 46.5332C130.579 45.9947 129.313 45.1332 128.236 43.9486C127.159 42.737 126.621 41.1082 126.621 39.062C126.621 37.2851 127.119 35.6697 128.115 34.2159C129.111 32.762 130.592 31.6178 132.558 30.7832C134.55 29.9486 136.96 29.5312 139.786 29.5312C141.725 29.5312 143.623 29.7466 145.481 30.1774C147.365 30.5812 149.021 31.187 150.448 31.9947L147.581 38.9005C144.808 37.5005 142.183 36.8005 139.706 36.8005C137.256 36.8005 136.031 37.3928 136.031 38.5774C136.031 39.1428 136.394 39.5736 137.121 39.8697C137.848 40.139 139.046 40.4351 140.715 40.7582C142.869 41.162 144.686 41.6332 146.167 42.1716C147.648 42.6832 148.927 43.5313 150.004 44.7159C151.108 45.9005 151.66 47.5159 151.66 49.562C151.66 51.339 151.161 52.9543 150.165 54.4082C149.169 55.8351 147.675 56.9793 145.683 57.8409C143.717 58.6755 141.321 59.0928 138.494 59.0928Z" fill="url(#paint3_linear)"/>
<g opacity="0.6">
<path d="M27.6641 81.554H28.7004V77.7263H32.4111V76.8069H28.7004V73.9152H32.7956V72.9959H27.6641V81.554Z" fill="#ADA39F"/>
<path d="M43.4517 72.9959H42.4154V81.554H43.4517V72.9959Z" fill="#ADA39F"/>
<path d="M60.1608 72.9959H59.1412V79.7321H59.0576L54.3774 72.9959H53.3745V81.554H54.4109V74.8346H54.4944L59.1579 81.554H60.1608V72.9959Z" fill="#ADA39F"/>
<path d="M70.4304 81.554L71.2913 79.1303H74.7513L75.6121 81.554H76.6986L73.5561 72.9959H72.4864L69.344 81.554H70.4304ZM71.6172 78.211L72.9878 74.3498H73.0547L74.4253 78.211H71.6172Z" fill="#ADA39F"/>
<path d="M92.6628 72.9959H91.6432V79.7321H91.5596L86.8794 72.9959H85.8765V81.554H86.9128V74.8346H86.9964L91.6599 81.554H92.6628V72.9959Z" fill="#ADA39F"/>
<path d="M109.468 75.6703C109.15 73.9152 107.746 72.8789 106.025 72.8789C103.835 72.8789 102.247 74.5671 102.247 77.275C102.247 79.9828 103.835 81.671 106.025 81.671C107.746 81.671 109.15 80.6347 109.468 78.8796H108.432C108.181 80.0664 107.161 80.7015 106.025 80.7015C104.47 80.7015 103.25 79.498 103.25 77.275C103.25 75.0519 104.47 73.8484 106.025 73.8484C107.161 73.8484 108.181 74.4835 108.432 75.6703H109.468Z" fill="#ADA39F"/>
<path d="M120.024 72.9959H118.988V81.554H120.024V72.9959Z" fill="#ADA39F"/>
<path d="M130.298 81.554L131.158 79.1303H134.618L135.479 81.554H136.566L133.423 72.9959H132.354L129.211 81.554H130.298ZM131.484 78.211L132.855 74.3498H132.922L134.293 78.211H131.484Z" fill="#ADA39F"/>
<path d="M145.744 81.554H150.758V80.6347H146.78V72.9959H145.744V81.554Z" fill="#ADA39F"/>
</g>
<defs>
<linearGradient id="paint0_linear" x1="148.51" y1="29.5312" x2="135.27" y2="85.4888" gradientUnits="userSpaceOnUse">
<stop stop-color="#FFE483"/>
<stop offset="0.0989583" stop-color="#FFAF83"/>
<stop offset="0.25" stop-color="#FF8567"/>
<stop offset="0.697917" stop-color="#EB5B38"/>
</linearGradient>
<linearGradient id="paint1_linear" x1="148.51" y1="29.5312" x2="135.27" y2="85.4888" gradientUnits="userSpaceOnUse">
<stop stop-color="#FFE483"/>
<stop offset="0.0989583" stop-color="#FFAF83"/>
<stop offset="0.25" stop-color="#FF8567"/>
<stop offset="0.697917" stop-color="#EB5B38"/>
</linearGradient>
<linearGradient id="paint2_linear" x1="148.51" y1="29.5312" x2="135.27" y2="85.4888" gradientUnits="userSpaceOnUse">
<stop stop-color="#FFE483"/>
<stop offset="0.0989583" stop-color="#FFAF83"/>
<stop offset="0.25" stop-color="#FF8567"/>
<stop offset="0.697917" stop-color="#EB5B38"/>
</linearGradient>
<linearGradient id="paint3_linear" x1="148.51" y1="29.5312" x2="135.27" y2="85.4888" gradientUnits="userSpaceOnUse">
<stop stop-color="#FFE483"/>
<stop offset="0.0989583" stop-color="#FFAF83"/>
<stop offset="0.25" stop-color="#FF8567"/>
<stop offset="0.697917" stop-color="#EB5B38"/>
</linearGradient>
</defs>
</svg>
