<svg xmlns="http://www.w3.org/2000/svg" viewBox="0 0 524.51 283.42"><defs><style>.a{fill:#d040ff;}.b{fill:#8733ff;}.c{fill:#fffdbd;}.d{fill:#bfe9ff;}.e{fill:#27fcc9;}</style></defs><ellipse class="a" cx="182.53" cy="236.4" rx="9.52" ry="9.13"/><path class="b" d="M77.25,14.22a9.1,9.1,0,0,1,7.54-3.77,9.49,9.49,0,0,1,9.42,9.42v31L125,14.22a9.27,9.27,0,0,1,7.54-3.77,9.49,9.49,0,0,1,9.42,9.42v71.6a9.42,9.42,0,1,1-18.84,0V43.87L94.21,78.41V91.47a9.42,9.42,0,1,1-18.84,0V44L30.27,97.75a9.1,9.1,0,0,1-6.78,3.14,8.74,8.74,0,0,1-8.8-8.79,8.26,8.26,0,0,1,2-5.65Z"/><path class="b" d="M154.49,67.61c0-18.59,13.31-33.29,31-33.29A30.64,30.64,0,0,1,204,40.6a8.93,8.93,0,0,1,8.54-6.28,8.74,8.74,0,0,1,8.8,8.79v49a8.74,8.74,0,0,1-8.8,8.79A8.92,8.92,0,0,1,204,94.61a29.82,29.82,0,0,1-18.46,6.28C167.8,100.89,154.49,86.2,154.49,67.61Zm49.24,0c0-9.68-6.91-17-15.7-17s-15.83,7.28-15.83,17,6.91,17,15.83,17S203.73,77.4,203.73,67.61Z"/><path class="b" d="M236.38,66.1c0-19.47,13.57-31.78,30.52-31.78a8.17,8.17,0,1,1,0,16.33c-7.16,0-12.93,5-12.93,15.45v26a8.8,8.8,0,0,1-17.59,0Z"/><path class="b" d="M279.46,43.74a8.15,8.15,0,0,1,8.17-8.17H290V28a8.8,8.8,0,0,1,17.59,0v7.53h12.94a8.17,8.17,0,0,1,0,16.33H307.6V69.11c0,10.43,5.78,15.45,12.94,15.45a8.17,8.17,0,0,1,0,16.33c-17,0-30.53-12.31-30.53-31.78V51.9h-2.38A8.15,8.15,0,0,1,279.46,43.74Z"/><path class="b" d="M338.75,18a10,10,0,1,1,10,10.05A10.07,10.07,0,0,1,338.75,18ZM340,43.11a8.8,8.8,0,0,1,17.59,0v49a8.8,8.8,0,0,1-17.59,0Z"/><path class="b" d="M370.14,67.61c0-18.59,13.32-33.29,31-33.29a30.64,30.64,0,0,1,18.47,6.28,8.93,8.93,0,0,1,8.54-6.28A8.73,8.73,0,0,1,437,43.11v49a8.73,8.73,0,0,1-8.79,8.79,8.92,8.92,0,0,1-8.54-6.28,29.83,29.83,0,0,1-18.47,6.28C383.46,100.89,370.14,86.2,370.14,67.61Zm49.24,0c0-9.68-6.9-17-15.7-17s-15.82,7.28-15.82,17,6.9,17,15.82,17S419.38,77.4,419.38,67.61Z"/><path class="b" d="M452,63.84c0-17.71,12.68-29.52,28.89-29.52s28.89,11.81,28.89,29.52V92.1a8.8,8.8,0,0,1-17.59,0V63.21c0-8.17-5-12.56-11.3-12.56S469.62,55,469.62,63.21V92.1a8.79,8.79,0,0,1-17.58,0Z"/><path class="b" d="M77.75,211.3c0-15.83,10.8-26.26,24.49-26.26,7.29,0,13.69,2.39,18.21,9.42,4.4-7,10.93-9.42,18.22-9.42,13.69,0,24.49,10.43,24.49,26.26v31.52a8.79,8.79,0,1,1-17.58,0V211c0-6.53-3.65-9.67-8.17-9.67s-8.16,3.14-8.16,9.67v31.78a8.8,8.8,0,1,1-17.59,0V211c0-6.53-3.64-9.67-8.16-9.67s-8.17,3.14-8.17,9.67v31.78a8.79,8.79,0,1,1-17.58,0Z"/><path class="b" d="M255.34,214.56c0-17.71,12.69-29.52,28.9-29.52s28.89,11.81,28.89,29.52v28.26a8.8,8.8,0,1,1-17.59,0V213.93c0-8.16-5-12.56-11.3-12.56s-11.31,4.4-11.31,12.56v28.89a8.8,8.8,0,1,1-17.59,0Z"/><path class="b" d="M325.68,218.33c0-18.59,14.07-33.29,33.54-33.29,10.3,0,18.09,4.27,21.6,7.54a9,9,0,0,1,.76,12.94l-16.21,19.34a7.53,7.53,0,0,1-6,2.89c-4.77,0-8.41-3.39-8.41-8a7.58,7.58,0,0,1,1.88-5.27L363.61,202a14.62,14.62,0,0,0-4.39-.63c-8.92,0-15.83,7.54-15.83,17s6.78,17,15.83,17a15,15,0,0,0,9.92-3.65c2.51-2.13,4.27-4,7.66-4a8.33,8.33,0,0,1,8.67,8.42,9.37,9.37,0,0,1-2.51,5.78c-4.27,5.15-12.94,9.8-23.74,9.8C339.87,251.62,325.68,237.05,325.68,218.33Z"/><path class="b" d="M399.91,241.57V193.84a8.8,8.8,0,1,1,17.59,0v26.75l27.38-32.66a7.53,7.53,0,0,1,6-2.89c4.77,0,8.42,3.39,8.42,8a7.85,7.85,0,0,1-1.89,5.28l-62.3,74.23a7.53,7.53,0,0,1-6,2.89c-4.78,0-8.42-3.39-8.42-8a7.76,7.76,0,0,1,1.89-5.27Z"/><path class="b" d="M209.25,185c-19.47,0-33.54,14.7-33.54,33.29s14.07,33.29,33.54,33.29,33.54-14.7,33.54-33.29S228.72,185,209.25,185Z"/><ellipse class="c" cx="227.35" cy="191.15" rx="12.77" ry="12.25"/><ellipse class="d" cx="193.42" cy="204.31" rx="6.29" ry="6.04"/><ellipse class="e" cx="228.52" cy="246.67" rx="9.52" ry="9.13"/></svg>